<svg width="260" height="43" viewBox="0 0 260 43" fill="#F3007E" xmlns="http://www.w3.org/2000/svg">
  <path d="M241.549 42.152C237.837 42.152 234.616 41.32 231.885 39.656C229.154 37.992 227.042 35.624 225.549 32.552C224.056 29.48 223.309 25.8533 223.309 21.672C223.309 17.4053 224.077 13.7147 225.613 10.6C227.149 7.48532 229.304 5.07465 232.077 3.36798C234.893 1.66132 238.2 0.807983 241.997 0.807983C245.368 0.807983 248.312 1.51198 250.829 2.91998C253.346 4.28532 255.33 6.22665 256.781 8.74398C258.232 11.2613 259.021 14.248 259.149 17.704H250.829C250.274 14.9733 249.208 12.8613 247.629 11.368C246.093 9.87465 244.173 9.12798 241.869 9.12798C238.84 9.12798 236.472 10.2373 234.765 12.456C233.101 14.632 232.269 17.704 232.269 21.672C232.269 25.512 233.08 28.4987 234.701 30.632C236.365 32.7653 238.648 33.832 241.549 33.832C243.64 33.832 245.41 33.192 246.861 31.912C248.312 30.632 249.336 28.84 249.933 26.536H258.317C258.061 29.6933 257.186 32.4453 255.693 34.792C254.242 37.1387 252.301 38.952 249.869 40.232C247.437 41.512 244.664 42.152 241.549 42.152Z" />
  <path d="M185.808 41L180.112 1.95996H188.88L191.184 20.584L192.144 33.704H193.104L196.112 1.95996H206.608L209.616 33.704H210.576L211.472 20.584L213.776 1.95996H221.712L216.016 41H204.432L201.488 9.25596H200.528L197.52 41H185.808Z" />
  <path d="M118.038 22.7599V14.4399L178.5 14.4399V22.7599H118.038Z" />
  <path d="M85.513 17.448H107.785L104.713 21.096C104.713 17.0853 104.009 14.056 102.601 12.008C101.193 9.91732 99.1023 8.87198 96.329 8.87198C93.385 8.87198 91.1237 9.95998 89.545 12.136C88.009 14.2693 87.241 17.2987 87.241 21.224C87.241 25.448 88.009 28.648 89.545 30.824C91.1237 33 93.4703 34.088 96.585 34.088C98.4197 34.088 100.041 33.6613 101.449 32.808C102.9 31.912 104.116 30.6107 105.097 28.904H113.865C113.097 31.6773 111.881 34.0667 110.217 36.072C108.596 38.0347 106.612 39.5493 104.265 40.616C101.918 41.64 99.2943 42.152 96.393 42.152C92.6383 42.152 89.417 41.32 86.729 39.656C84.041 37.992 81.9717 35.6027 80.521 32.488C79.0703 29.3733 78.345 25.6187 78.345 21.224C78.345 17.0427 79.0917 13.4373 80.585 10.408C82.0783 7.33598 84.169 4.96798 86.857 3.30398C89.545 1.63998 92.7023 0.807983 96.329 0.807983C99.8277 0.807983 102.814 1.61865 105.289 3.23998C107.764 4.81865 109.662 7.12265 110.985 10.152C112.308 13.1387 112.969 16.7653 112.969 21.032C112.969 21.672 112.948 22.2693 112.905 22.824C112.862 23.3786 112.82 23.9333 112.777 24.488H85.513V17.448Z" />
  <path d="M49.4605 28.904C50.0578 30.568 51.0392 31.848 52.4045 32.744C53.7698 33.5973 55.5192 34.024 57.6525 34.024C59.9138 34.024 61.6418 33.6613 62.8365 32.936C64.0312 32.2107 64.6285 31.1866 64.6285 29.864C64.6285 28.7973 64.1805 27.9653 63.2845 27.368C62.3885 26.728 61.0232 26.28 59.1885 26.024L53.8125 25.384C49.5032 24.8293 46.2818 23.592 44.1485 21.672C42.0578 19.752 41.0125 17.0427 41.0125 13.544C41.0125 9.57598 42.4418 6.46132 45.3005 4.19998C48.2018 1.93865 52.2125 0.807983 57.3325 0.807983C62.6658 0.807983 66.8045 2.02398 69.7485 4.45598C72.7352 6.84532 74.3352 10.3013 74.5485 14.824H66.0365C65.5245 12.904 64.5432 11.4533 63.0925 10.472C61.6418 9.44798 59.7005 8.93598 57.2685 8.93598C54.8792 8.93598 53.0445 9.31998 51.7645 10.088C50.5272 10.8133 49.9085 11.8587 49.9085 13.224C49.9085 14.248 50.3565 15.08 51.2525 15.72C52.1485 16.3173 53.5138 16.7226 55.3485 16.936L60.7245 17.64C65.0765 18.152 68.2978 19.3893 70.3885 21.352C72.4792 23.272 73.5245 25.96 73.5245 29.416C73.5245 32.0613 72.8845 34.344 71.6045 36.264C70.3672 38.1413 68.5538 39.592 66.1645 40.616C63.8178 41.64 60.9592 42.152 57.5885 42.152C52.4685 42.152 48.4792 41.0213 45.6205 38.76C42.7618 36.456 41.1618 33.1707 40.8205 28.904H49.4605Z" />
  <path d="M33.592 1.95996V41H24.376V37.672H22.136C21.24 39.08 20.024 40.1893 18.488 41C16.952 41.768 15.224 42.152 13.304 42.152C10.6587 42.152 8.37599 41.5546 6.45599 40.36C4.57866 39.1226 3.12799 37.3733 2.10399 35.112C1.07999 32.808 0.567993 30.0773 0.567993 26.92V1.95996H9.78399V24.616C9.78399 27.5173 10.4027 29.736 11.64 31.272C12.8773 32.7653 14.6907 33.512 17.08 33.512C19.4693 33.512 21.2827 32.7653 22.52 31.272C23.7573 29.736 24.376 27.5173 24.376 24.616V1.95996H33.592Z" />
</svg>
