<svg width="274" height="44" viewBox="0 0 274 44" fill="#003dff" xmlns="http://www.w3.org/2000/svg">
    <path d="M248.452 1.92022L273.654 17.1173L273.738 24.3489L248.991 40.1245L244.336 33.298L264.993 20.8339L244.057 9.23562L248.452 1.92022Z" />
    <path d="M226.286 34.4371C227.66 34.6275 228.986 34.5421 230.263 34.1809C231.565 33.8014 232.877 33.2725 234.199 32.5943L237.789 39.5534C236.134 40.6161 234.181 41.4222 231.929 41.9715C229.699 42.5237 227.273 42.6182 224.653 42.2548C221.04 41.7538 218.036 40.5835 215.642 38.7439C213.251 36.8832 211.541 34.5355 210.513 31.7007C209.487 28.8448 209.218 25.6629 209.704 22.1551C210.191 18.6474 211.331 15.6287 213.124 13.0991C214.942 10.5513 217.27 8.67719 220.107 7.47681C222.965 6.27937 226.201 5.93117 229.814 6.43221C232.371 6.78675 234.593 7.46096 236.48 8.45485C238.39 9.43053 240.084 10.7314 241.56 12.3576L236.382 17.7778C235.353 16.8166 234.234 16.0262 233.028 15.4067C231.822 14.7871 230.532 14.3821 229.158 14.1917C226.897 13.8781 224.958 14.4277 223.341 15.8402C221.747 17.2346 220.689 19.8231 220.164 23.6055C219.821 26.0779 219.878 28.0779 220.334 29.6057C220.792 31.1123 221.539 32.2497 222.574 33.0178C223.633 33.7677 224.871 34.2408 226.286 34.4371Z" />
    <path d="M206.332 38.7714L195.281 40.3894L189.09 18.2044L189.392 41.2518L178.532 42.842L168.637 9.94452L177.788 8.60463L183.983 35.6727L184.14 12.0082L192.562 10.775L199.117 33.4565L197.355 5.73939L206.189 4.44586L206.332 38.7714Z" />
    <path d="M141.943 28.8185L141.162 20.9853L168.737 18.2374L169.518 26.0706L141.943 28.8185Z" />
    <path d="M115.063 27.3406C115.42 29.1769 115.999 30.6457 116.799 31.747C117.619 32.8256 118.622 33.5927 119.807 34.0484C120.99 34.4828 122.295 34.6525 123.721 34.5576C125.275 34.4542 126.759 34.0989 128.172 33.4917C129.585 32.8845 130.934 32.1106 132.219 31.1699L136.639 36.3919C135.133 37.8605 133.271 39.1069 131.051 40.1312C128.853 41.1541 126.306 41.7618 123.411 41.9545C119.537 42.2123 116.24 41.662 113.52 40.3036C110.798 38.9239 108.688 36.9263 107.188 34.3108C105.688 31.6953 104.822 28.6314 104.588 25.1192C104.366 21.7772 104.802 18.7014 105.898 15.8918C106.993 13.0609 108.71 10.7551 111.05 8.97445C113.41 7.17109 116.368 6.15114 119.923 5.91459C123.158 5.69928 126.003 6.20482 128.458 7.43119C130.934 8.65615 132.908 10.5239 134.379 13.0344C135.872 15.5435 136.739 18.618 136.982 22.258C137.02 22.8327 137.04 23.4514 137.041 24.1141C137.064 24.7754 137.06 25.3636 137.03 25.8788L115.063 27.3406ZM120.373 12.6836C118.564 12.804 117.149 13.5503 116.128 14.9224C115.108 16.2945 114.576 18.4145 114.531 21.2825L126.984 20.4538C126.798 17.9861 126.187 16.0383 125.152 14.6106C124.116 13.1829 122.523 12.5406 120.373 12.6836Z" />
    <path d="M84.2114 34.765C85.89 34.9159 87.2631 34.7716 88.3307 34.3321C89.4196 33.8945 90.0118 33.1445 90.1073 32.0821C90.1722 31.3597 90.0248 30.736 89.6651 30.211C89.3053 29.6861 88.5718 29.1489 87.4645 28.5995C86.3572 28.0502 84.7052 27.3662 82.5083 26.5476C80.497 25.8098 78.7327 24.9444 77.2155 23.9512C75.7196 22.96 74.5856 21.755 73.8135 20.3361C73.0627 18.9192 72.7771 17.2121 72.9566 15.2148C73.1381 13.1963 73.8625 11.4515 75.13 9.98041C76.3975 8.50932 78.1656 7.42593 80.4343 6.73027C82.7049 6.01336 85.4232 5.7972 88.5891 6.0818C91.6063 6.35302 94.195 6.982 96.3554 7.96871C98.5389 8.9361 100.395 10.0883 101.924 11.4252L97.3756 16.9923C96.0515 15.9951 94.605 15.1689 93.036 14.5138C91.469 13.8375 89.8674 13.4257 88.2313 13.2787C86.5952 13.1316 85.3535 13.2449 84.5059 13.6185C83.6816 13.9728 83.2302 14.5855 83.1519 15.4566C83.1003 16.0303 83.2573 16.5478 83.6228 17.009C84.0115 17.4509 84.7594 17.9466 85.8667 18.4959C86.9759 19.024 88.6067 19.7061 90.7591 20.5422C92.8923 21.3551 94.7299 22.2378 96.2722 23.1904C97.8357 24.1449 99.0025 25.3422 99.7726 26.7822C100.545 28.2011 100.831 30.0154 100.633 32.2251C100.411 34.6898 99.4919 36.6956 97.875 38.2424C96.2599 39.7679 94.204 40.8361 91.7073 41.447C89.2105 42.0579 86.5173 42.2335 83.6277 41.9737C80.3555 41.6796 77.5079 40.9524 75.0847 39.7921C72.6615 38.6318 70.6369 37.2075 69.0109 35.5191L74.5884 30.3015C75.8141 31.4398 77.225 32.4235 78.8212 33.2524C80.4386 34.0832 82.2354 34.5874 84.2114 34.765Z" />
    <path d="M45.6639 7.46722L47.6267 30.6483C47.7653 32.2851 48.1583 33.3865 48.8057 33.9526C49.4743 34.5168 50.3507 34.7531 51.4349 34.6613C52.4765 34.5731 53.4902 34.1554 54.476 33.4082C55.4618 32.6611 56.2577 31.6945 56.8638 30.5084L54.847 6.68966L64.923 5.8365L67.7902 39.6993L58.9897 40.4445L58.2085 36.5284C57.201 38.2837 55.798 39.6657 53.9993 40.6744C52.2007 41.683 50.281 42.2738 48.2403 42.4466C44.9667 42.7237 42.4526 41.9839 40.6982 40.227C38.9419 38.4488 37.9278 35.9548 37.656 32.745L35.588 8.32037L45.6639 7.46722Z" />
    <path d="M29.2659 2.8427L33.0148 10.1987L11.21 20.3451L30.7824 34.1268L25.5574 40.8706L2.17589 23.134L2.84174 15.997L29.2659 2.8427Z" />
</svg>
